<svg xmlns="http://www.w3.org/2000/svg" width="122.017" height="39.646" viewBox="0 0 122.017 39.646">
  <g id="logo" transform="translate(-2580.157 -436.077)">
    <g id="Group_1" data-name="Group 1" transform="translate(2580.157 446.666)">
      <path id="Path_1" data-name="Path 1" d="M2590.4,513.178l2.583,2.583,2.555-2.555-7.665-7.665-2.554,2.555,2.527,2.528-2.555,2.555-2.527-2.528-2.555,2.555,2.527,2.527-2.574,2.575,2.537,2.536,2.575-2.575,2.594,2.594h.014l2.547-2.548-2.583-2.582Z" transform="translate(-2580.157 -502.88)" fill="#fff"/>
      <path id="Path_2" data-name="Path 2" d="M2647.618,497.795a3.1,3.1,0,1,0-3.1-3.1,3.1,3.1,0,0,0,3.1,3.1" transform="translate(-2632.241 -491.593)" fill="#fff"/>
      <path id="Path_3" data-name="Path 3" d="M2654.416,513.186l-2.555-2.555-2.527,2.527-2.555-2.555,2.527-2.527-2.554-2.556-7.658,7.658c0,.005,0,.01,0,.015l2.547,2.547,2.576-2.576,2.554,2.555L2644.2,518.3l-2.555-2.555-2.589,2.59-2.55-2.55-2.519,2.519,2.55,2.55,2.445,2.445.119.119,5.108-5.109,2.546,2.546,2.575-2.576,2.553,2.553,2.537-2.536-2.552-2.553Z" transform="translate(-2623.716 -502.864)" fill="#fff"/>
    </g>
    <g id="Group_2" data-name="Group 2" transform="translate(2615.6 436.077)">
      <path id="Path_4" data-name="Path 4" d="M2953.4,439.634a3.55,3.55,0,0,0-4.573,0,3.561,3.561,0,0,1-3.557-3.557h2.541a1.016,1.016,0,1,0,2.032,0h2.541a1.016,1.016,0,0,0,2.033,0h2.541A3.561,3.561,0,0,1,2953.4,439.634Z" transform="translate(-2911.069 -436.077)" fill="#fff"/>
      <path id="Path_5" data-name="Path 5" d="M2845.384,455.921h-7.05v.008c-.111-.006-.223-.008-.336-.008a8.059,8.059,0,0,0-7.88,9.732H2813.9a8.056,8.056,0,1,0-15.76,0h-16.052V454.727h-4.326v1.194h-4.626a7.115,7.115,0,0,0-7.159,6.86,7.037,7.037,0,0,0,7.027,7.2h27.648a8.037,8.037,0,0,0,10.734,0h21.248a8.039,8.039,0,0,0,10.735,0h2.15a7.037,7.037,0,0,0,7.027-7.2A7.115,7.115,0,0,0,2845.384,455.921ZM2770.3,462.95a2.706,2.706,0,0,1,2.7-2.7h4.758v5.407H2773A2.706,2.706,0,0,1,2770.3,462.95Zm35.719,4.758a3.731,3.731,0,1,1,3.731-3.731A3.735,3.735,0,0,1,2806.015,467.708Zm28.252-3.73a3.731,3.731,0,1,1,7.462,0,3.687,3.687,0,0,1-.4,1.675,3.728,3.728,0,0,1-6.665,0A3.687,3.687,0,0,1,2834.268,463.978Zm11.618,1.65a8.1,8.1,0,0,0,.17-1.65,7.989,7.989,0,0,0-.919-3.731h.38a2.7,2.7,0,0,1,.37,5.381Z" transform="translate(-2765.971 -451.17)" fill="#fff"/>
      <path id="Path_6" data-name="Path 6" d="M2774.957,550.2c2.884,0,4.91,2.121,4.91,5.839v7.913h-4.433v-7.341a2.284,2.284,0,0,0-2.432-2.455,2.43,2.43,0,0,0-2.6,2.455v7.341h-4.433v-18.5h4.433v6.864a6.487,6.487,0,0,1,4.552-2.121" transform="translate(-2765.971 -524.595)" fill="#fff"/>
      <path id="Path_7" data-name="Path 7" d="M2854.625,570.324a6.88,6.88,0,0,0-7.1,7.031c0,4.147,2.86,7.007,7.723,7.007a7.224,7.224,0,0,0,5.792-2.526l-2.383-2.121a4.745,4.745,0,0,1-3.051,1.1c-2.026,0-3.218-.929-3.552-2h9.534a8.062,8.062,0,0,0,.072-1.12c0-4.672-2.861-7.365-7.032-7.365M2852,576.283a2.468,2.468,0,0,1,2.6-2.336,2.373,2.373,0,0,1,2.526,2.336Z" transform="translate(-2831.968 -544.717)" fill="#fff"/>
      <path id="Path_8" data-name="Path 8" d="M3156.456,545.459v6.864a6.489,6.489,0,0,0-4.553-2.121c-2.884,0-4.91,2.121-4.91,5.84v7.913h4.434v-7.341a2.284,2.284,0,0,1,2.431-2.455,2.431,2.431,0,0,1,2.6,2.455v7.341h4.433v-18.5Z" transform="translate(-3074.315 -524.595)" fill="#fff"/>
      <path id="Path_9" data-name="Path 9" d="M2949.039,570.324a6.524,6.524,0,0,0-4.79,2.329,4.465,4.465,0,0,0-4.071-2.329l-.057,0-.068,0h-.036l.067,0a6.629,6.629,0,0,0-4.792,2.428,4.44,4.44,0,0,0-3.875-2.424l-.06,0q-.092,0-.185,0h-.029a5.809,5.809,0,0,0-.818.058v4.128a2.23,2.23,0,0,1,1.223,2.131v7.436h4.482v-7.317a2.32,2.32,0,0,1,2.264-2.479,2.2,2.2,0,0,1,2.288,2.36v7.436h4.458v-7.985c0-.081,0-.16,0-.239a2.227,2.227,0,0,1,2.12-1.573,2.2,2.2,0,0,1,2.288,2.36v7.436h4.457v-7.985c0-3.647-2-5.768-4.862-5.768" transform="translate(-2898.977 -544.717)" fill="#fff"/>
      <path id="Path_10" data-name="Path 10" d="M3075.9,577.892v-1.334c-.02-3.423-1.281-5.516-4.457-6.079a11.062,11.062,0,0,0-1.931-.155,15.318,15.318,0,0,0-6.292,1.43l1,3.194a12.271,12.271,0,0,1,4.6-.953c1.525,0,2.669.62,2.621,2.431a11.4,11.4,0,0,0-3.432-.5c-2.407,0-5.387,1.24-5.387,4.243,0,2.741,2.122,4.171,5.1,4.171a6.8,6.8,0,0,0,1.006-.073h0a3.989,3.989,0,0,0,1.561-.475,3.692,3.692,0,0,0,1.145-.845c.05-.049.1-.1.149-.155a5.54,5.54,0,0,0,.662-.886,4.375,4.375,0,0,0,2.986,2.2,5.269,5.269,0,0,0,1.07.107,5.8,5.8,0,0,0,.752-.05v-4.165a2.242,2.242,0,0,1-1.157-2.1m-4.457,1.537c0,1.24-1.024,1.859-2.36,1.859-1.144,0-2.05-.572-2.05-1.5,0-.859.977-1.406,2.288-1.406a5.6,5.6,0,0,1,2.121.405Z" transform="translate(-3006.04 -544.717)" fill="#fff"/>
    </g>
  </g>
</svg>
